<?xml version="1.0" standalone="no"?>
<!DOCTYPE svg PUBLIC "-//W3C//DTD SVG 20010904//EN"
 "http://www.w3.org/TR/2001/REC-SVG-20010904/DTD/svg10.dtd">
<svg version="1.0" xmlns="http://www.w3.org/2000/svg"
 width="1024.000000pt" height="1024.000000pt" viewBox="0 0 1024.000000 1024.000000"
 preserveAspectRatio="xMidYMid meet">
<metadata>
Created by potrace 1.15, written by Peter Selinger 2001-2017
</metadata>
<g transform="translate(0.000000,1024.000000) scale(0.100000,-0.100000)"
fill="#000000" stroke="none">
<path d="M4830 10203 c-1694 -99 -3205 -1015 -4082 -2473 -957 -1592 -957
-3626 0 -5220 623 -1038 1580 -1815 2722 -2208 715 -246 1528 -328 2295 -231
1504 190 2836 1036 3655 2323 1053 1653 1053 3799 0 5452 -349 548 -793 1021
-1310 1395 -785 569 -1687 894 -2658 959 -140 9 -487 11 -622 3z m-2010 -3096
c392 -93 677 -320 799 -637 67 -172 64 -133 69 -1135 4 -1071 2 -1105 -77
-1304 -146 -364 -547 -621 -1013 -649 -287 -17 -519 24 -744 133 -272 132
-473 369 -547 648 -22 82 -22 86 -22 1097 l0 1015 23 85 c93 353 362 609 758
725 154 45 240 55 454 51 164 -4 211 -8 300 -29z m2434 -901 l381 -849 5 849
5 849 428 3 427 2 0 -1795 0 -1795 -397 0 -398 0 -400 837 -400 836 -3 -837
-2 -836 -430 0 -430 0 0 1795 0 1795 417 -2 417 -3 380 -849z m3676 464 l0
-390 -542 -2 -543 -3 0 -315 0 -315 353 -3 352 -2 0 -335 0 -335 -352 -2 -353
-3 -3 -332 -2 -333 545 0 545 0 0 -415 0 -415 -1025 0 -1025 0 0 1795 0 1795
1025 0 1025 0 0 -390z"/>
<path d="M2408 6340 c-48 -14 -96 -50 -120 -88 l-23 -37 -3 -928 c-2 -623 1
-941 8 -967 6 -22 22 -53 37 -70 89 -106 287 -99 361 13 l27 41 3 943 c2 909
2 946 -17 987 -40 91 -164 139 -273 106z"/>
</g>
</svg>
